<mxfile host="app.diagrams.net" modified="2023-10-20T00:00:36.444Z" agent="Mozilla/5.0 (Windows NT 10.0; Win64; x64; rv:109.0) Gecko/20100101 Firefox/118.0" etag="ZU0dkf4bQq9fkQUmoHXH" version="22.0.5" type="device">
  <diagram name="Seite-1" id="FjznJcCvAfnNPgJysFmL">
    <mxGraphModel dx="1234" dy="1133" grid="1" gridSize="10" guides="1" tooltips="1" connect="1" arrows="1" fold="1" page="1" pageScale="1" pageWidth="827" pageHeight="1169" math="0" shadow="0">
      <root>
        <mxCell id="0" />
        <mxCell id="1" parent="0" />
        <mxCell id="_YJaqQ2tUMV7np8o3qyg-1" value="" style="rounded=0;whiteSpace=wrap;html=1;" vertex="1" parent="1">
          <mxGeometry x="99" y="130" width="261" height="450" as="geometry" />
        </mxCell>
        <mxCell id="_YJaqQ2tUMV7np8o3qyg-10" style="edgeStyle=orthogonalEdgeStyle;rounded=0;orthogonalLoop=1;jettySize=auto;html=1;entryX=0;entryY=0.5;entryDx=0;entryDy=0;" edge="1" parent="1" source="_YJaqQ2tUMV7np8o3qyg-2" target="_YJaqQ2tUMV7np8o3qyg-3">
          <mxGeometry relative="1" as="geometry">
            <mxPoint x="70" y="340" as="sourcePoint" />
          </mxGeometry>
        </mxCell>
        <mxCell id="_YJaqQ2tUMV7np8o3qyg-11" style="edgeStyle=orthogonalEdgeStyle;rounded=0;orthogonalLoop=1;jettySize=auto;html=1;" edge="1" parent="1" source="_YJaqQ2tUMV7np8o3qyg-2" target="_YJaqQ2tUMV7np8o3qyg-4">
          <mxGeometry relative="1" as="geometry" />
        </mxCell>
        <mxCell id="_YJaqQ2tUMV7np8o3qyg-12" style="edgeStyle=orthogonalEdgeStyle;rounded=0;orthogonalLoop=1;jettySize=auto;html=1;entryX=0;entryY=0.5;entryDx=0;entryDy=0;" edge="1" parent="1" source="_YJaqQ2tUMV7np8o3qyg-2" target="_YJaqQ2tUMV7np8o3qyg-5">
          <mxGeometry relative="1" as="geometry" />
        </mxCell>
        <mxCell id="_YJaqQ2tUMV7np8o3qyg-2" value="Nutzer" style="shape=umlActor;verticalLabelPosition=bottom;verticalAlign=top;html=1;outlineConnect=0;" vertex="1" parent="1">
          <mxGeometry x="30" y="330" width="30" height="60" as="geometry" />
        </mxCell>
        <mxCell id="_YJaqQ2tUMV7np8o3qyg-3" value="Interpretation" style="rounded=1;whiteSpace=wrap;html=1;" vertex="1" parent="1">
          <mxGeometry x="190" y="200" width="120" height="60" as="geometry" />
        </mxCell>
        <mxCell id="_YJaqQ2tUMV7np8o3qyg-4" value="Training" style="rounded=1;whiteSpace=wrap;html=1;" vertex="1" parent="1">
          <mxGeometry x="190" y="330" width="120" height="60" as="geometry" />
        </mxCell>
        <mxCell id="_YJaqQ2tUMV7np8o3qyg-6" style="edgeStyle=orthogonalEdgeStyle;rounded=0;orthogonalLoop=1;jettySize=auto;html=1;entryX=0.5;entryY=1;entryDx=0;entryDy=0;dashed=1;dashPattern=8 8;startArrow=classicThin;startFill=1;endArrow=none;endFill=0;" edge="1" parent="1" source="_YJaqQ2tUMV7np8o3qyg-5" target="_YJaqQ2tUMV7np8o3qyg-4">
          <mxGeometry relative="1" as="geometry" />
        </mxCell>
        <mxCell id="_YJaqQ2tUMV7np8o3qyg-7" value="extend" style="edgeLabel;html=1;align=center;verticalAlign=middle;resizable=0;points=[];" vertex="1" connectable="0" parent="_YJaqQ2tUMV7np8o3qyg-6">
          <mxGeometry x="-0.1714" y="2" relative="1" as="geometry">
            <mxPoint as="offset" />
          </mxGeometry>
        </mxCell>
        <mxCell id="_YJaqQ2tUMV7np8o3qyg-5" value="Testen" style="rounded=1;whiteSpace=wrap;html=1;" vertex="1" parent="1">
          <mxGeometry x="190" y="460" width="120" height="60" as="geometry" />
        </mxCell>
        <mxCell id="_YJaqQ2tUMV7np8o3qyg-8" style="edgeStyle=orthogonalEdgeStyle;rounded=0;orthogonalLoop=1;jettySize=auto;html=1;entryX=0.5;entryY=0;entryDx=0;entryDy=0;dashed=1;dashPattern=8 8;startArrow=classicThin;startFill=1;endArrow=none;endFill=0;exitX=0.5;exitY=1;exitDx=0;exitDy=0;" edge="1" parent="1" source="_YJaqQ2tUMV7np8o3qyg-3" target="_YJaqQ2tUMV7np8o3qyg-4">
          <mxGeometry relative="1" as="geometry">
            <mxPoint x="350" y="420" as="sourcePoint" />
            <mxPoint x="355.5" y="240" as="targetPoint" />
          </mxGeometry>
        </mxCell>
        <mxCell id="_YJaqQ2tUMV7np8o3qyg-9" value="extend" style="edgeLabel;html=1;align=center;verticalAlign=middle;resizable=0;points=[];" vertex="1" connectable="0" parent="_YJaqQ2tUMV7np8o3qyg-8">
          <mxGeometry x="-0.1714" y="2" relative="1" as="geometry">
            <mxPoint as="offset" />
          </mxGeometry>
        </mxCell>
        <mxCell id="_YJaqQ2tUMV7np8o3qyg-13" value="CKi" style="text;html=1;strokeColor=none;fillColor=none;align=center;verticalAlign=middle;whiteSpace=wrap;rounded=0;" vertex="1" parent="1">
          <mxGeometry x="200" y="140" width="60" height="30" as="geometry" />
        </mxCell>
      </root>
    </mxGraphModel>
  </diagram>
</mxfile>
